<svg width="102" height="67" viewBox="0 0 102 67" fill="none" xmlns="http://www.w3.org/2000/svg">
<path d="M71.837 66.8567V39.9901H90.9926V45.8672H79.0528V50.4849H90.0063V56.3619H79.0528V60.9796H90.9407V66.8567H71.837Z" fill="white"/>
<path d="M37.7892 39.9901H46.77L52.9475 55.2075H53.259L59.4366 39.9901H68.4174V66.8567H61.3573V51.3244H61.1497L55.2317 66.6468H50.9749L45.0569 51.2195H44.8492V66.8567H37.7892V39.9901Z" fill="white"/>
<path d="M34.3694 39.9901V66.8567H27.1536V39.9901H34.3694Z" fill="white"/>
<path d="M1.33704 45.8672V39.9901H24.438V45.8672H16.4435V66.8567H9.33151V45.8672H1.33704Z" fill="white"/>
<path d="M47.6206 34.8738V12.7584H57.0644C58.6882 12.7584 60.109 13.0823 61.3269 13.7302C62.5447 14.3781 63.492 15.2888 64.1685 16.4623C64.8451 17.6357 65.1834 19.0071 65.1834 20.5765C65.1834 22.1603 64.8345 23.5317 64.1365 24.6908C63.4457 25.8498 62.4735 26.7425 61.22 27.3688C59.9737 27.9951 58.5172 28.3083 56.8507 28.3083H51.2101V23.6433H55.6542C56.3522 23.6433 56.9468 23.5209 57.4383 23.2761C57.9368 23.0242 58.3178 22.6678 58.5813 22.2071C58.852 21.7463 58.9873 21.2028 58.9873 20.5765C58.9873 19.943 58.852 19.4031 58.5813 18.9567C58.3178 18.5032 57.9368 18.1576 57.4383 17.9201C56.9468 17.6753 56.3522 17.5529 55.6542 17.5529H53.5603V34.8738H47.6206Z" fill="#64099B"/>
<path d="M38.1299 12.7583H44.0696V26.926C44.0696 28.6106 43.6708 30.0684 42.8731 31.2994C42.0826 32.5232 40.9787 33.4699 39.5614 34.1394C38.1441 34.8017 36.499 35.1329 34.6259 35.1329C32.7386 35.1329 31.0863 34.8017 29.669 34.1394C28.2517 33.4699 27.1478 32.5232 26.3573 31.2994C25.5738 30.0684 25.1821 28.6106 25.1821 26.926V12.7583H31.1219V26.4077C31.1219 27.0916 31.2714 27.7035 31.5706 28.2434C31.8697 28.7761 32.2828 29.1937 32.8098 29.496C33.3439 29.7984 33.9493 29.9496 34.6259 29.9496C35.3096 29.9496 35.915 29.7984 36.442 29.496C36.969 29.1937 37.3821 28.7761 37.6812 28.2434C37.9803 27.7035 38.1299 27.0916 38.1299 26.4077V12.7583Z" fill="#64099B"/>
<path d="M22.4874 21.0516H16.4622C16.4195 20.5477 16.3055 20.0906 16.1203 19.6802C15.9423 19.2699 15.693 18.9171 15.3725 18.622C15.0592 18.3196 14.6781 18.0892 14.2295 17.9309C13.7808 17.7653 13.2715 17.6825 12.7018 17.6825C11.7047 17.6825 10.8608 17.9273 10.1699 18.4168C9.48621 18.9063 8.96631 19.6082 8.61021 20.5225C8.26123 21.4368 8.08674 22.5346 8.08674 23.8161C8.08674 25.1695 8.26479 26.3033 8.62089 27.2176C8.98411 28.1247 9.50758 28.8086 10.1913 29.2693C10.875 29.7229 11.6976 29.9496 12.6591 29.9496C13.2075 29.9496 13.6989 29.8812 14.1333 29.7445C14.5678 29.6005 14.9452 29.3953 15.2657 29.1289C15.5862 28.8626 15.8461 28.5422 16.0456 28.1679C16.2521 27.7863 16.391 27.358 16.4622 26.8828L22.4874 26.926C22.4162 27.8619 22.1562 28.8158 21.7075 29.7877C21.2589 30.7523 20.6214 31.645 19.7953 32.4657C18.9763 33.2792 17.9614 33.9343 16.7506 34.431C15.5399 34.9278 14.1333 35.1761 12.5309 35.1761C10.5225 35.1761 8.7206 34.7406 7.12527 33.8695C5.53707 32.9984 4.28004 31.717 3.35418 30.0252C2.43544 28.3335 1.97607 26.2637 1.97607 23.8161C1.97607 21.354 2.44613 19.2807 3.38623 17.5961C4.32633 15.9043 5.59405 14.6265 7.18937 13.7626C8.7847 12.8915 10.5652 12.456 12.5309 12.456C13.9125 12.456 15.1838 12.6468 16.3447 13.0283C17.5056 13.4099 18.524 13.9678 19.4 14.7021C20.276 15.4292 20.9811 16.3255 21.5153 17.3909C22.0494 18.4564 22.3735 19.6766 22.4874 21.0516Z" fill="#64099B"/>
<g clip-path="url(#clip0_15_107)">
<path d="M96.933 22.2674V16.9832H90.6636V12.6853H69.7655V31.8495C69.7655 34.181 71.64 36.0769 73.9451 36.0769H86.484C88.7891 36.0769 90.6636 34.181 90.6636 31.8495V29.629C94.1988 29.1107 96.933 25.9843 96.933 22.2674ZM94.8432 22.2674C94.8432 24.8191 93.0453 27.0242 90.6636 27.5152V19.0969H94.8432V22.2674ZM74.9308 1.57083L73.5329 0C70.6043 2.66791 72.1798 4.71454 73.1206 5.93654C74.039 7.13064 74.3829 7.57755 73.2063 8.76756L74.6839 10.262C77.1655 7.752 75.6655 5.80239 74.7695 4.63823C73.8084 3.38932 73.4482 2.92184 74.9308 1.57083ZM80.1553 1.57083L78.7574 0C75.8288 2.66791 77.4043 4.71454 78.3451 5.93654C79.2635 7.13064 79.6074 7.57755 78.4308 8.76756L79.9084 10.262C82.39 7.752 80.89 5.80239 79.9941 4.63823C79.0329 3.38932 78.6727 2.92184 80.1553 1.57083ZM85.3799 1.57083L83.9819 0C81.0533 2.66791 82.6288 4.71454 83.5697 5.93654C84.4881 7.13064 84.8319 7.57755 83.6553 8.76756L85.1329 10.262C87.6146 7.752 86.1146 5.80239 85.2186 4.63823C84.2574 3.38932 83.8972 2.92184 85.3799 1.57083Z" fill="#64099B"/>
</g>
<defs>
<clipPath id="clip0_15_107">
<rect width="35.6691" height="36.0769" fill="white" transform="translate(65.5146)"/>
</clipPath>
</defs>
</svg>
